<?xml version="1.0" encoding="UTF-8"?>
<svg version="1.1" xmlns="http://www.w3.org/2000/svg" width="336" height="187">
<path d="M0 0 C0.66 0 1.32 0 2 0 C3.09057617 1.45507812 3.09057617 1.45507812 4.29296875 3.53125 C4.75026367 4.30936035 5.20755859 5.0874707 5.67871094 5.88916016 C6.17661133 6.7507373 6.67451172 7.61231445 7.1875 8.5 C8.27790953 10.35276366 9.37044883 12.20427514 10.46484375 14.0546875 C11.04218262 15.03147461 11.61952148 16.00826172 12.21435547 17.01464844 C15.15431969 21.92986343 18.20138048 26.77668957 21.25 31.625 C26.54326213 40.05720263 31.79185779 48.51495238 37 57 C42.13064548 65.35622546 47.29324504 73.69098396 52.5 82 C59.10770127 92.54600277 65.63744641 103.13866886 72.15234375 113.7421875 C77.22211636 121.99272156 82.32202498 130.22451306 87.42333984 138.45556641 C89.02899091 141.04678588 90.63379304 143.63852908 92.23828125 146.23046875 C93.04664429 147.53624878 93.04664429 147.53624878 93.87133789 148.8684082 C94.94770741 150.60760578 96.02372292 152.3470225 97.09936523 154.08666992 C99.94734467 158.69138747 102.80380542 163.29057675 105.671875 167.8828125 C106.27064453 168.84380859 106.86941406 169.80480469 107.48632812 170.79492188 C108.63874899 172.64415535 109.79359464 174.49188054 110.95117188 176.33789062 C111.46744141 177.16740234 111.98371094 177.99691406 112.515625 178.8515625 C112.97227539 179.58197754 113.42892578 180.31239258 113.89941406 181.06494141 C115 183 115 183 116 186 C112.45619498 186.30815696 108.92040475 186.54048719 105.3671875 186.69140625 C101.27385228 186.87531429 97.26075987 187.33461983 93.1953125 187.83984375 C75.45294495 189.56905881 75.45294495 189.56905881 69.61181641 185.22314453 C65.19260707 180.17770958 62.40769422 174.24820529 59.58056641 168.21240234 C56.92789114 162.82100581 53.62533487 157.85761336 50.375 152.8125 C49.11010398 150.79235053 47.84833553 148.77023907 46.58984375 146.74609375 C38.63715238 134.00614015 30.60193029 121.31699622 22.51611328 108.66113281 C19.57773127 104.0618557 16.65379613 99.45477213 13.76779175 94.82247925 C12.31156917 92.48806959 10.84704907 90.15892705 9.38146973 87.8303833 C8.32727111 86.14856512 7.28415436 84.45981703 6.24121094 82.77099609 C5.60086914 81.75602051 4.96052734 80.74104492 4.30078125 79.6953125 C3.73528564 78.78797363 3.16979004 77.88063477 2.5871582 76.94580078 C2.063396 76.30368652 1.53963379 75.66157227 1 75 C0.01 75 -0.98 75 -2 75 C-3.61127472 77.19917225 -4.99646317 79.34609203 -6.375 81.6875 C-7.26014182 83.14860404 -8.14557387 84.60953228 -9.03125 86.0703125 C-9.505625 86.86083008 -9.98 87.65134766 -10.46875 88.46582031 C-13.22454406 93.02658918 -16.05798159 97.5393944 -18.875 102.0625 C-19.95734488 103.80238135 -21.03814457 105.54322516 -22.1171875 107.28515625 C-22.57722168 108.02644775 -23.03725586 108.76773926 -23.51123047 109.53149414 C-25.39530271 112.65544535 -27.19002427 115.83254247 -29 119 C-43.85 119 -58.7 119 -74 119 C-72.39607505 114.18822516 -70.64435593 110.34905239 -68.0703125 106.08203125 C-67.49091415 105.10673714 -67.49091415 105.10673714 -66.89981079 104.11174011 C-65.64760884 102.00830183 -64.38672189 99.91023941 -63.125 97.8125 C-62.25273263 96.35363343 -61.38066345 94.89464834 -60.50878906 93.43554688 C-55.0969445 84.39800881 -49.59097558 75.42746675 -43.90625 66.55859375 C-41.83121609 63.32060538 -39.79603527 60.06097271 -37.78125 56.78515625 C-29.83675095 43.89171676 -21.58450972 31.22689908 -13.1875 18.625 C-12.64750366 17.81330353 -12.10750732 17.00160706 -11.55114746 16.16531372 C-10.00972674 13.85039467 -8.46465831 11.53796372 -6.91796875 9.2265625 C-6.21739601 8.17511803 -6.21739601 8.17511803 -5.50267029 7.10243225 C-3.79143243 4.55417479 -2.17623867 2.17623867 0 0 Z " fill="#FEFEFE" transform="translate(115,0)"/>
<path d="M0 0 C60.39 0 120.78 0 183 0 C180.75689988 5.6077503 177.8895491 10.5082054 174.8125 15.6875 C174.26013672 16.63044922 173.70777344 17.57339844 173.13867188 18.54492188 C172.58373047 19.48271484 172.02878906 20.42050781 171.45703125 21.38671875 C170.7141687 22.64295044 170.7141687 22.64295044 169.95629883 23.92456055 C169.31072021 24.93945557 168.6651416 25.95435059 168 27 C167.35926198 28.20957288 167.35926198 28.20957288 166.70557976 29.44358158 C162.60597141 36.42795399 162.60597141 36.42795399 158.38324642 37.93208599 C155.1625128 38.28618128 152.06906162 38.3258013 148.8293457 38.25878906 C147.01330086 38.2804287 147.01330086 38.2804287 145.16056824 38.30250549 C141.85238932 38.33186447 138.55009426 38.31706689 135.24235559 38.28173161 C131.76714981 38.25464631 128.29236673 38.28280922 124.81718445 38.30438232 C118.97713822 38.33293579 113.13810187 38.32504204 107.2980957 38.29150391 C99.09798524 38.24451396 90.89910229 38.26624595 82.69898856 38.30044603 C76.98500851 38.32163636 71.27099475 38.32604899 65.55697989 38.32747936 C64.18107702 38.32790878 62.8051742 38.32880493 61.42927194 38.33017445 C56.89190691 38.33405022 52.3549194 38.31850747 47.81762695 38.29394531 C46.13154831 38.29519157 46.13154831 38.29519157 44.41140747 38.29646301 C23.58424659 38.12488055 23.58424659 38.12488055 17 32 C12.35103702 26.39389758 8.75332005 20.04265305 5.125 13.75 C4.73143311 13.07678711 4.33786621 12.40357422 3.93237305 11.70996094 C3.56539307 11.05801758 3.19841309 10.40607422 2.8203125 9.734375 C2.49305176 9.15913086 2.16579102 8.58388672 1.82861328 7.99121094 C1 6 1 6 0 0 Z " fill="#FF0000" transform="translate(152,0)"/>
<path d="M0 0 C12.54 0 25.08 0 38 0 C39.14923286 14.94002724 39.14923286 14.94002724 39.12939453 22.30004883 C39.13114685 23.1345607 39.13289917 23.96907257 39.13470459 24.82887268 C39.13904069 27.53828119 39.1362138 30.24762229 39.1328125 32.95703125 C39.1334881 34.87310295 39.13446024 36.78917456 39.13571167 38.70524597 C39.13717767 42.70332665 39.13507034 46.70138484 39.13037109 50.69946289 C39.12468618 55.77903704 39.12795203 60.85855819 39.13394356 65.93813038 C39.13758894 69.89080694 39.13639229 73.84347133 39.13381577 77.7961483 C39.13315684 79.66690769 39.13393795 81.53766826 39.13629532 83.40842628 C39.14735308 94.65001026 38.86202117 105.78837938 38 117 C33.95002598 115.65000866 33.21822088 113.71585339 30.90234375 110.15625 C30.5115715 109.55964569 30.12079926 108.96304138 29.71818542 108.34835815 C28.44903799 106.4045412 27.19270733 104.45284261 25.9375 102.5 C25.07229775 101.16475 24.20690026 99.82962649 23.34130859 98.49462891 C-0.14256963 62.1603592 -0.14256963 62.1603592 -0.11352539 49.49707031 C-0.11344986 48.39623108 -0.11337433 47.29539185 -0.11329651 46.16119385 C-0.10813522 44.97878113 -0.10297394 43.79636841 -0.09765625 42.578125 C-0.0962413 41.36300232 -0.09482635 40.14787964 -0.09336853 38.89593506 C-0.08776988 35.01393169 -0.0752176 31.13198594 -0.0625 27.25 C-0.05748483 24.61849042 -0.05292195 21.98697993 -0.04882812 19.35546875 C-0.03865168 12.90360576 -0.01907582 6.4518674 0 0 Z " fill="#FEFEFE" transform="translate(224,62)"/>
<path d="M0 0 C1.15640991 -0.00262848 1.15640991 -0.00262848 2.33618164 -0.00531006 C4.89374013 -0.00972347 7.45122983 -0.00679122 10.00878906 -0.00341797 C11.78517673 -0.00409143 13.56156431 -0.00506181 15.33795166 -0.00631714 C19.06710688 -0.00779365 22.79623818 -0.00564208 26.52539062 -0.00097656 C31.29799187 0.00470414 36.07053668 0.00145197 40.84313583 -0.00454903 C44.51491721 -0.00817005 48.18668531 -0.00700868 51.8584671 -0.00442123 C53.61747494 -0.00375537 55.376484 -0.00456847 57.13549042 -0.00690079 C59.60077583 -0.00945075 62.06597125 -0.005553 64.53125 0 C65.61626801 -0.00303635 65.61626801 -0.00303635 66.72320557 -0.00613403 C70.76006345 0.01064327 74.5633213 0.35012275 78.52441406 1.12939453 C76.2497254 7.2592327 72.90520584 12.79576818 69.60473633 18.41455078 C68.84287585 19.72441046 68.09345934 21.0415875 67.35668945 22.36572266 C66.28441789 24.2900309 65.17343882 26.18668793 64.05175781 28.08251953 C63.07323853 29.78649902 63.07323853 29.78649902 62.07495117 31.52490234 C58.97267121 34.69280917 57.43566269 34.90974421 53.14512634 35.11047363 C52.28029129 35.11671753 51.41545624 35.12296143 50.52441406 35.12939453 C49.58445084 35.15336304 48.64448761 35.17733154 47.67604065 35.20202637 C44.43317498 35.26224701 41.19359931 35.26801024 37.95019531 35.26220703 C36.7499321 35.26316376 35.54966888 35.26412048 34.31303406 35.2651062 C31.77566475 35.26578452 29.23829368 35.26395456 26.70092773 35.25976562 C22.89400122 35.25447388 19.08719602 35.2596906 15.28027344 35.26611328 C0.6665423 35.26968641 -13.88484382 34.95636965 -28.47558594 34.12939453 C-24.36999085 23.5141101 -24.36999085 23.5141101 -21.81933594 19.39111328 C-21.12130859 18.25512695 -21.12130859 18.25512695 -20.40917969 17.09619141 C-19.93609375 16.34402344 -19.46300781 15.59185547 -18.97558594 14.81689453 C-18.26595703 13.65963867 -18.26595703 13.65963867 -17.54199219 12.47900391 C-9.79142989 -0.02709731 -9.79142989 -0.02709731 0 0 Z " fill="#FF0000" transform="translate(28.4755859375,151.87060546875)"/>
</svg>
